<svg xmlns="http://www.w3.org/2000/svg" xmlns:xlink="http://www.w3.org/1999/xlink" width="378" zoomAndPan="magnify" viewBox="0 0 282.96 283.499989" height="378" preserveAspectRatio="xMidYMid meet" version="1.2"><defs><clipPath id="ff49b53bae"><path d="M 107 57 L 275 57 L 275 171 L 107 171 Z M 107 57 "/></clipPath><clipPath id="f71a6c0ec9"><path d="M 120.46875 47.261719 L 283.054688 97.0625 L 256.261719 184.535156 L 93.671875 134.734375 Z M 120.46875 47.261719 "/></clipPath><clipPath id="0452fa8056"><path d="M 120.46875 47.261719 L 283.054688 97.0625 L 256.261719 184.535156 L 93.671875 134.734375 Z M 120.46875 47.261719 "/></clipPath><clipPath id="b902091674"><path d="M 114 63 L 138 63 L 138 102 L 114 102 Z M 114 63 "/></clipPath><clipPath id="f1bc42417a"><path d="M 120.46875 47.261719 L 283.054688 97.0625 L 256.261719 184.535156 L 93.671875 134.734375 Z M 120.46875 47.261719 "/></clipPath><clipPath id="023df1457f"><path d="M 120.46875 47.261719 L 283.054688 97.0625 L 256.261719 184.535156 L 93.671875 134.734375 Z M 120.46875 47.261719 "/></clipPath><clipPath id="3039ef9efc"><path d="M 269 94 L 279 94 L 279 123 L 269 123 Z M 269 94 "/></clipPath><clipPath id="afc2029494"><path d="M 120.46875 47.261719 L 283.054688 97.0625 L 256.261719 184.535156 L 93.671875 134.734375 Z M 120.46875 47.261719 "/></clipPath><clipPath id="9edf1eadac"><path d="M 120.46875 47.261719 L 283.054688 97.0625 L 256.261719 184.535156 L 93.671875 134.734375 Z M 120.46875 47.261719 "/></clipPath><clipPath id="0be415ad12"><path d="M 217 154 L 253 154 L 253 171 L 217 171 Z M 217 154 "/></clipPath><clipPath id="2881e6e9ce"><path d="M 120.46875 47.261719 L 283.054688 97.0625 L 256.261719 184.535156 L 93.671875 134.734375 Z M 120.46875 47.261719 "/></clipPath><clipPath id="871da8089d"><path d="M 120.46875 47.261719 L 283.054688 97.0625 L 256.261719 184.535156 L 93.671875 134.734375 Z M 120.46875 47.261719 "/></clipPath><clipPath id="7079d79041"><path d="M 6 139 L 144 139 L 144 228 L 6 228 Z M 6 139 "/></clipPath><clipPath id="0ab5643793"><path d="M 0.230469 162.277344 L 137.351562 133.015625 L 153.125 206.925781 L 16 236.1875 Z M 0.230469 162.277344 "/></clipPath><clipPath id="4e5c3d2fa6"><path d="M 137.109375 133.066406 L -0.015625 162.328125 L 15.757812 236.238281 L 152.882812 206.976562 Z M 137.109375 133.066406 "/></clipPath><clipPath id="ed136c06a1"><path d="M 122 145 L 139 145 L 139 179 L 122 179 Z M 122 145 "/></clipPath><clipPath id="76cc5dc5fc"><path d="M 0.230469 162.277344 L 137.351562 133.015625 L 153.125 206.925781 L 16 236.1875 Z M 0.230469 162.277344 "/></clipPath><clipPath id="f9eacb656f"><path d="M 137.109375 133.066406 L -0.015625 162.328125 L 15.757812 236.238281 L 152.882812 206.976562 Z M 137.109375 133.066406 "/></clipPath><clipPath id="4bbc076fd6"><path d="M 3 160 L 12 160 L 12 184 L 3 184 Z M 3 160 "/></clipPath><clipPath id="87dbdd38d7"><path d="M 0.230469 162.277344 L 137.351562 133.015625 L 153.125 206.925781 L 16 236.1875 Z M 0.230469 162.277344 "/></clipPath><clipPath id="82ad327c40"><path d="M 137.109375 133.066406 L -0.015625 162.328125 L 15.757812 236.238281 L 152.882812 206.976562 Z M 137.109375 133.066406 "/></clipPath><clipPath id="5f89fe701b"><path d="M 21 213 L 49 213 L 49 228 L 21 228 Z M 21 213 "/></clipPath><clipPath id="7c7f2a0d19"><path d="M 0.230469 162.277344 L 137.351562 133.015625 L 153.125 206.925781 L 16 236.1875 Z M 0.230469 162.277344 "/></clipPath><clipPath id="1b12ad5213"><path d="M 137.109375 133.066406 L -0.015625 162.328125 L 15.757812 236.238281 L 152.882812 206.976562 Z M 137.109375 133.066406 "/></clipPath></defs><g id="3a844977d0"><g clip-rule="nonzero" clip-path="url(#ff49b53bae)"><g clip-rule="nonzero" clip-path="url(#f71a6c0ec9)"><g clip-rule="nonzero" clip-path="url(#0452fa8056)"><path style=" stroke:none;fill-rule:evenodd;fill:#a9ce57;fill-opacity:1;" d="M 272.25 101.164062 C 269.734375 97.3125 265.832031 94.628906 261.402344 92.59375 C 255.253906 89.765625 248.085938 88.195312 242.601562 86.160156 C 228.464844 80.921875 214.210938 75.992188 199.792969 71.632812 C 185.359375 67.273438 170.753906 63.476562 155.933594 60.507812 C 148.84375 59.085938 139.734375 56.5 131.628906 57.097656 C 125.769531 57.535156 120.425781 59.589844 116.566406 64.675781 C 114.597656 67.269531 113.445312 70.371094 112.710938 73.660156 C 111.695312 78.222656 111.503906 83.15625 110.839844 87.449219 C 109.988281 92.964844 108.222656 98.777344 107.839844 104.496094 C 107.570312 108.554688 107.980469 112.566406 109.769531 116.417969 C 111.707031 120.582031 115.414062 123.480469 119.8125 125.605469 C 125.804688 128.5 133.089844 129.960938 138.339844 131.648438 C 145.519531 133.949219 152.761719 135.855469 160.046875 137.5625 C 170.933594 140.117188 181.914062 142.226562 192.917969 144.574219 C 197.046875 145.453125 204.164062 146.257812 210.046875 147.46875 C 212.402344 147.953125 214.550781 148.496094 216.195312 149.148438 C 216.160156 150.105469 216.058594 152.570312 216.03125 152.886719 C 215.894531 154.46875 215.640625 156.042969 215.320312 157.613281 C 214.828125 160.011719 214.183594 162.390625 213.554688 164.734375 C 213.414062 165.257812 212.652344 166.976562 212.355469 168.085938 C 212.125 168.925781 212.195312 169.609375 212.335938 169.929688 C 212.367188 170.003906 213.679688 171.207031 215.078125 170.214844 C 216.332031 169.324219 219.386719 167.007812 219.660156 166.777344 C 222.144531 164.652344 224.523438 162.460938 226.839844 160.203125 C 229.074219 158.03125 231.246094 155.796875 233.394531 153.5 C 237.539062 154.21875 242.863281 155.472656 247.875 155.625 C 251.699219 155.746094 255.34375 155.21875 258.253906 153.492188 C 260.019531 152.445312 261.394531 150.964844 262.507812 149.261719 C 264.035156 146.921875 265.054688 144.152344 265.980469 141.644531 C 268.175781 135.695312 272.953125 123.847656 274.105469 114.027344 C 274.707031 108.890625 274.285156 104.28125 272.25 101.164062 Z M 263.195312 140.617188 C 262.34375 142.925781 261.425781 145.484375 260.019531 147.640625 C 259.160156 148.960938 258.109375 150.125 256.742188 150.9375 C 254.285156 152.394531 251.191406 152.757812 247.96875 152.660156 C 242.933594 152.503906 237.578125 151.191406 233.496094 150.503906 C 233.082031 150.433594 232.679688 150.539062 232.367188 150.769531 C 232.03125 150.808594 231.707031 150.964844 231.453125 151.230469 C 229.261719 153.578125 227.046875 155.859375 224.769531 158.078125 C 222.5 160.289062 220.164062 162.4375 217.726562 164.519531 C 217.625 164.609375 217.089844 165.019531 216.414062 165.53125 L 216.421875 165.503906 C 217.066406 163.105469 217.726562 160.667969 218.230469 158.207031 C 218.574219 156.527344 218.84375 154.835938 218.988281 153.140625 C 219.03125 152.675781 219.347656 149.511719 219.136719 148.277344 C 218.980469 147.355469 218.453125 146.894531 218.09375 146.730469 C 216.226562 145.878906 213.585938 145.164062 210.644531 144.558594 C 204.769531 143.351562 197.660156 142.550781 193.539062 141.671875 C 182.550781 139.328125 171.589844 137.222656 160.726562 134.675781 C 153.515625 132.984375 146.351562 131.097656 139.246094 128.820312 C 134.105469 127.171875 126.96875 125.765625 121.101562 122.929688 C 117.351562 121.117188 114.117188 118.722656 112.460938 115.164062 C 110.890625 111.785156 110.566406 108.257812 110.804688 104.695312 C 111.179688 99.058594 112.933594 93.339844 113.773438 87.902344 C 114.429688 83.667969 114.609375 78.804688 115.609375 74.304688 C 116.246094 71.441406 117.214844 68.730469 118.933594 66.46875 C 122.230469 62.121094 126.839844 60.429688 131.847656 60.058594 C 139.6875 59.480469 148.492188 62.042969 155.347656 63.417969 C 170.078125 66.371094 184.589844 70.140625 198.933594 74.476562 C 213.296875 78.816406 227.492188 83.722656 241.570312 88.945312 C 246.992188 90.957031 254.085938 92.496094 260.164062 95.289062 C 264.066406 97.082031 267.550781 99.394531 269.765625 102.789062 C 271.996094 106.203125 271.691406 111.726562 270.53125 117.585938 C 268.820312 126.238281 265.050781 135.582031 263.195312 140.617188 Z M 263.195312 140.617188 "/></g></g></g><g clip-rule="nonzero" clip-path="url(#b902091674)"><g clip-rule="nonzero" clip-path="url(#f1bc42417a)"><g clip-rule="nonzero" clip-path="url(#023df1457f)"><path style=" stroke:none;fill-rule:evenodd;fill:#a9ce57;fill-opacity:1;" d="M 131.441406 63.339844 C 125.953125 64.1875 122.324219 67.054688 119.847656 70.933594 C 118.007812 73.8125 116.765625 77.242188 115.988281 80.824219 C 115.238281 84.269531 114.976562 87.847656 114.582031 91.140625 C 114.398438 93.234375 114.230469 95.335938 114.207031 97.453125 C 114.1875 98.859375 114.238281 100.253906 114.359375 101.65625 C 114.460938 100.265625 114.648438 98.890625 114.871094 97.507812 C 115.207031 95.445312 115.636719 93.40625 116.101562 91.378906 C 116.726562 88.164062 117.433594 84.714844 118.222656 81.324219 C 119.003906 77.96875 119.894531 74.691406 121.4375 71.875 C 123.492188 68.128906 126.558594 65.175781 131.5625 63.9375 C 132.480469 63.699219 133.402344 63.535156 134.335938 63.457031 C 135.277344 63.371094 136.21875 63.375 137.171875 63.46875 C 136.226562 63.273438 135.277344 63.167969 134.324219 63.152344 C 133.363281 63.132812 132.40625 63.199219 131.441406 63.339844 Z M 131.441406 63.339844 "/></g></g></g><g clip-rule="nonzero" clip-path="url(#3039ef9efc)"><g clip-rule="nonzero" clip-path="url(#afc2029494)"><g clip-rule="nonzero" clip-path="url(#9edf1eadac)"><path style=" stroke:none;fill-rule:evenodd;fill:#a9ce57;fill-opacity:1;" d="M 277.691406 113.734375 C 277.894531 112.679688 278.027344 111.632812 278.070312 110.597656 C 278.113281 109.523438 278.050781 108.457031 277.910156 107.414062 C 277.625 105.300781 277.019531 103.265625 276.027344 101.332031 C 274.71875 98.789062 272.761719 96.457031 269.984375 94.285156 C 273.125 97.679688 274.710938 101.148438 275.382812 104.75 C 275.59375 105.890625 275.703125 107.042969 275.761719 108.210938 C 275.820312 109.359375 275.800781 110.523438 275.765625 111.714844 C 275.722656 113.113281 275.648438 114.53125 275.519531 115.996094 C 275.324219 118.121094 275.09375 120.277344 274.710938 122.535156 C 275.355469 121.078125 275.960938 119.679688 276.460938 118.242188 C 276.988281 116.726562 277.402344 115.230469 277.691406 113.734375 Z M 277.691406 113.734375 "/></g></g></g><g clip-rule="nonzero" clip-path="url(#0be415ad12)"><g clip-rule="nonzero" clip-path="url(#2881e6e9ce)"><g clip-rule="nonzero" clip-path="url(#871da8089d)"><path style=" stroke:none;fill-rule:evenodd;fill:#a9ce57;fill-opacity:1;" d="M 240.503906 156.777344 C 239.714844 156.546875 237.332031 155.359375 235.753906 155.019531 C 234.847656 154.820312 234.113281 154.933594 233.71875 155.171875 C 233.039062 155.589844 232.363281 156.25 231.742188 157.054688 C 230.628906 158.5 229.648438 160.410156 228.664062 161.503906 C 227.117188 163.285156 225.371094 164.9375 223.503906 166.457031 C 221.609375 167.996094 219.613281 169.390625 217.558594 170.597656 C 219.773438 169.652344 221.964844 168.53125 224.046875 167.21875 C 226.15625 165.890625 228.128906 164.375 229.921875 162.722656 C 231.011719 161.683594 232.195312 159.84375 233.421875 158.425781 C 233.863281 157.921875 234.296875 157.46875 234.753906 157.1875 L 234.835938 157.1875 C 236.234375 157.257812 239.136719 158.507812 240.007812 158.707031 C 242.105469 159.097656 244.167969 159.277344 246.21875 159.109375 C 248.246094 158.945312 250.210938 158.46875 252.175781 157.710938 C 250.15625 158.070312 248.191406 158.113281 246.222656 157.945312 C 244.296875 157.785156 242.402344 157.410156 240.503906 156.777344 Z M 240.503906 156.777344 "/></g></g></g><g clip-rule="nonzero" clip-path="url(#7079d79041)"><g clip-rule="nonzero" clip-path="url(#0ab5643793)"><g clip-rule="nonzero" clip-path="url(#4e5c3d2fa6)"><path style=" stroke:none;fill-rule:evenodd;fill:#a9ce57;fill-opacity:1;" d="M 8.78125 166.417969 C 11.121094 163.4375 14.511719 161.515625 18.292969 160.160156 C 23.535156 158.285156 29.527344 157.507812 34.171875 156.230469 C 46.140625 152.945312 58.183594 149.921875 70.324219 147.378906 C 82.472656 144.832031 94.71875 142.765625 107.089844 141.390625 C 113.007812 140.730469 120.664062 139.261719 127.269531 140.332031 C 132.042969 141.109375 136.277344 143.179688 139.078125 147.625 C 140.507812 149.894531 141.234375 152.519531 141.597656 155.269531 C 142.105469 159.085938 141.910156 163.144531 142.144531 166.710938 C 142.453125 171.300781 143.484375 176.191406 143.386719 180.910156 C 143.320312 184.257812 142.695312 187.519531 140.953125 190.546875 C 139.066406 193.828125 135.816406 195.9375 132.058594 197.363281 C 126.9375 199.3125 120.859375 199.988281 116.429688 200.996094 C 110.378906 202.371094 104.300781 203.417969 98.203125 204.296875 C 89.09375 205.609375 79.9375 206.558594 70.742188 207.695312 C 67.292969 208.121094 61.398438 208.273438 56.488281 208.84375 C 54.519531 209.070312 52.71875 209.363281 51.324219 209.78125 C 51.285156 210.566406 51.191406 212.597656 51.191406 212.859375 C 51.1875 214.164062 51.285156 215.476562 51.4375 216.785156 C 51.667969 218.789062 52.027344 220.785156 52.375 222.753906 C 52.453125 223.191406 52.957031 224.65625 53.121094 225.585938 C 53.246094 226.292969 53.140625 226.847656 53.003906 227.101562 C 52.972656 227.160156 51.808594 228.054688 50.734375 227.140625 C 49.769531 226.320312 47.429688 224.203125 47.222656 223.992188 C 45.335938 222.070312 43.539062 220.105469 41.800781 218.085938 C 40.125 216.144531 38.503906 214.15625 36.90625 212.121094 C 33.453125 212.410156 29 213.058594 24.878906 212.828125 C 21.734375 212.652344 18.78125 211.957031 16.515625 210.335938 C 15.144531 209.351562 14.125 208.039062 13.332031 206.5625 C 12.246094 204.535156 11.609375 202.1875 11.03125 200.066406 C 9.65625 195.027344 6.585938 184.96875 6.339844 176.832031 C 6.214844 172.574219 6.886719 168.828125 8.78125 166.417969 Z M 13.386719 199.421875 C 13.917969 201.375 14.488281 203.542969 15.488281 205.410156 C 16.101562 206.554688 16.878906 207.585938 17.941406 208.347656 C 19.851562 209.71875 22.363281 210.238281 25.015625 210.386719 C 29.15625 210.621094 33.640625 209.925781 37.039062 209.652344 C 37.382812 209.625 37.703125 209.742188 37.941406 209.953125 C 38.21875 210.011719 38.472656 210.160156 38.660156 210.398438 C 40.289062 212.480469 41.945312 214.507812 43.652344 216.492188 C 45.355469 218.46875 47.117188 220.394531 48.96875 222.28125 C 49.046875 222.359375 49.453125 222.734375 49.972656 223.199219 L 49.96875 223.179688 C 49.613281 221.164062 49.246094 219.117188 49.007812 217.066406 C 48.84375 215.664062 48.746094 214.257812 48.746094 212.855469 C 48.746094 212.472656 48.710938 209.851562 48.972656 208.855469 C 49.167969 208.113281 49.632812 207.773438 49.9375 207.664062 C 51.53125 207.09375 53.75 206.699219 56.207031 206.414062 C 61.109375 205.84375 66.996094 205.695312 70.441406 205.269531 C 79.621094 204.132812 88.761719 203.191406 97.855469 201.878906 C 103.886719 201.007812 109.898438 199.972656 115.890625 198.613281 C 120.222656 197.628906 126.175781 196.984375 131.191406 195.078125 C 134.398438 193.859375 137.222656 192.128906 138.835938 189.328125 C 140.367188 186.667969 140.882812 183.796875 140.945312 180.859375 C 141.039062 176.210938 140.007812 171.394531 139.707031 166.875 C 139.472656 163.355469 139.675781 159.355469 139.175781 155.589844 C 138.859375 153.199219 138.257812 150.902344 137.011719 148.925781 C 134.613281 145.125 130.957031 143.410156 126.878906 142.746094 C 120.488281 141.710938 113.082031 143.179688 107.359375 143.820312 C 95.070312 145.1875 82.898438 147.242188 70.824219 149.769531 C 58.734375 152.304688 46.738281 155.3125 34.820312 158.589844 C 30.226562 159.851562 24.300781 160.605469 19.117188 162.460938 C 15.785156 163.65625 12.765625 165.300781 10.703125 167.925781 C 8.628906 170.566406 8.484375 175.121094 9.015625 180.007812 C 9.804688 187.226562 12.222656 195.160156 13.386719 199.421875 Z M 13.386719 199.421875 "/></g></g></g><g clip-rule="nonzero" clip-path="url(#ed136c06a1)"><g clip-rule="nonzero" clip-path="url(#76cc5dc5fc)"><g clip-rule="nonzero" clip-path="url(#f9eacb656f)"><path style=" stroke:none;fill-rule:evenodd;fill:#a9ce57;fill-opacity:1;" d="M 126.972656 145.464844 C 131.417969 146.554688 134.1875 149.164062 135.941406 152.523438 C 137.242188 155.015625 138.019531 157.917969 138.398438 160.910156 C 138.765625 163.789062 138.726562 166.742188 138.8125 169.472656 C 138.816406 171.203125 138.800781 172.941406 138.671875 174.675781 C 138.585938 175.832031 138.445312 176.972656 138.242188 178.113281 C 138.257812 176.964844 138.207031 175.824219 138.121094 174.675781 C 137.992188 172.957031 137.789062 171.257812 137.550781 169.558594 C 137.269531 166.878906 136.933594 164 136.53125 161.164062 C 136.128906 158.355469 135.632812 155.601562 134.570312 153.183594 C 133.152344 149.964844 130.851562 147.320312 126.832031 145.945312 C 126.097656 145.6875 125.351562 145.488281 124.59375 145.351562 C 123.828125 145.21875 123.050781 145.152344 122.265625 145.164062 C 123.054688 145.066406 123.839844 145.050781 124.625 145.105469 C 125.414062 145.15625 126.195312 145.28125 126.972656 145.464844 Z M 126.972656 145.464844 "/></g></g></g><g clip-rule="nonzero" clip-path="url(#4bbc076fd6)"><g clip-rule="nonzero" clip-path="url(#87dbdd38d7)"><g clip-rule="nonzero" clip-path="url(#82ad327c40)"><path style=" stroke:none;fill-rule:evenodd;fill:#a9ce57;fill-opacity:1;" d="M 3.417969 176.335938 C 3.328125 175.457031 3.292969 174.589844 3.335938 173.738281 C 3.375 172.851562 3.503906 171.980469 3.691406 171.136719 C 4.078125 169.421875 4.71875 167.800781 5.671875 166.285156 C 6.925781 164.292969 8.699219 162.519531 11.132812 160.9375 C 8.3125 163.496094 6.765625 166.226562 5.957031 169.132812 C 5.699219 170.054688 5.53125 170.988281 5.398438 171.945312 C 5.269531 172.882812 5.199219 173.839844 5.144531 174.816406 C 5.078125 175.96875 5.039062 177.132812 5.042969 178.347656 C 5.046875 180.101562 5.082031 181.890625 5.234375 183.765625 C 4.8125 182.527344 4.414062 181.335938 4.109375 180.125 C 3.78125 178.839844 3.546875 177.585938 3.417969 176.335938 Z M 3.417969 176.335938 "/></g></g></g><g clip-rule="nonzero" clip-path="url(#5f89fe701b)"><g clip-rule="nonzero" clip-path="url(#7c7f2a0d19)"><g clip-rule="nonzero" clip-path="url(#1b12ad5213)"><path style=" stroke:none;fill-rule:evenodd;fill:#a9ce57;fill-opacity:1;" d="M 30.839844 214.300781 C 31.503906 214.167969 33.542969 213.363281 34.863281 213.195312 C 35.621094 213.101562 36.214844 213.242188 36.523438 213.46875 C 37.050781 213.859375 37.554688 214.449219 38.007812 215.152344 C 38.816406 216.421875 39.484375 218.054688 40.214844 219.023438 C 41.355469 220.59375 42.667969 222.074219 44.09375 223.453125 C 45.535156 224.851562 47.070312 226.136719 48.671875 227.273438 C 46.921875 226.34375 45.207031 225.265625 43.589844 224.039062 C 41.957031 222.800781 40.449219 221.417969 39.097656 219.933594 C 38.277344 219 37.433594 217.40625 36.53125 216.15625 C 36.207031 215.710938 35.882812 215.3125 35.527344 215.046875 L 35.460938 215.042969 C 34.308594 215 31.835938 215.816406 31.109375 215.917969 C 29.363281 216.085938 27.65625 216.085938 25.988281 215.804688 C 24.335938 215.523438 22.757812 214.992188 21.203125 214.230469 C 22.832031 214.667969 24.4375 214.84375 26.070312 214.847656 C 27.65625 214.855469 29.238281 214.679688 30.839844 214.300781 Z M 30.839844 214.300781 "/></g></g></g></g></svg>