<svg xmlns="http://www.w3.org/2000/svg" xmlns:xlink="http://www.w3.org/1999/xlink" width="378" zoomAndPan="magnify" viewBox="0 0 282.96 283.499989" height="378" preserveAspectRatio="xMidYMid meet" version="1.2"><defs><clipPath id="79c6185103"><path d="M 176 24 L 230 24 L 230 277.363281 L 176 277.363281 Z M 176 24 "/></clipPath><clipPath id="5746473f0e"><path d="M 28.070312 24 L 80 24 L 80 277.363281 L 28.070312 277.363281 Z M 28.070312 24 "/></clipPath><clipPath id="c7f24af956"><path d="M 95 5.589844 L 127 5.589844 L 127 43 L 95 43 Z M 95 5.589844 "/></clipPath><clipPath id="cd7c5942cb"><path d="M 238 117 L 255.671875 117 L 255.671875 132 L 238 132 Z M 238 117 "/></clipPath><clipPath id="c98cba0231"><path d="M 238 145 L 255.671875 145 L 255.671875 161 L 238 161 Z M 238 145 "/></clipPath><clipPath id="1402e5bab8"><path d="M 238 136 L 255.671875 136 L 255.671875 142 L 238 142 Z M 238 136 "/></clipPath></defs><g id="1da12bd0f4"><g clip-rule="nonzero" clip-path="url(#79c6185103)"><path style=" stroke:none;fill-rule:nonzero;fill:#a9ce57;fill-opacity:1;" d="M 223.109375 24.734375 L 180.539062 24.734375 C 178.453125 24.734375 176.773438 26.464844 176.847656 28.566406 C 176.917969 30.570312 178.625 32.125 180.628906 32.125 L 222.121094 32.125 L 222.121094 273.394531 C 222.121094 275.398438 223.679688 277.105469 225.683594 277.179688 C 227.785156 277.253906 229.515625 275.570312 229.515625 273.484375 L 229.515625 31.140625 C 229.515625 27.601562 226.648438 24.734375 223.109375 24.734375 Z M 223.109375 24.734375 "/></g><g clip-rule="nonzero" clip-path="url(#5746473f0e)"><path style=" stroke:none;fill-rule:nonzero;fill:#a9ce57;fill-opacity:1;" d="M 79.265625 28.296875 C 79.191406 26.292969 77.488281 24.734375 75.480469 24.734375 L 34.480469 24.734375 C 30.945312 24.734375 28.078125 27.601562 28.078125 31.140625 L 28.078125 273.394531 C 28.078125 275.398438 29.636719 277.105469 31.640625 277.179688 C 33.742188 277.253906 35.46875 275.570312 35.46875 273.484375 L 35.46875 32.125 L 75.574219 32.125 C 77.65625 32.125 79.339844 30.398438 79.265625 28.296875 Z M 79.265625 28.296875 "/></g><path style=" stroke:none;fill-rule:nonzero;fill:#a9ce57;fill-opacity:1;" d="M 197.4375 50.792969 L 60.890625 50.792969 C 57.363281 50.792969 54.503906 53.652344 54.503906 57.183594 L 54.503906 253.605469 C 54.503906 257.132812 57.363281 259.996094 60.890625 259.996094 L 197.4375 259.996094 C 200.96875 259.996094 203.828125 257.132812 203.828125 253.605469 L 203.828125 57.183594 C 203.828125 53.652344 200.96875 50.792969 197.4375 50.792969 Z M 61.894531 252.601562 L 61.894531 58.183594 L 125.101562 58.183594 L 125.464844 252.601562 Z M 196.4375 252.601562 L 132.859375 252.601562 L 132.492188 58.183594 L 196.4375 58.183594 Z M 196.4375 252.601562 "/><path style=" stroke:none;fill-rule:nonzero;fill:#a9ce57;fill-opacity:1;" d="M 139.09375 27.085938 L 141.734375 24.445312 L 141.734375 38.78125 C 141.734375 41.332031 143.800781 43.402344 146.355469 43.402344 C 148.90625 43.402344 150.972656 41.335938 150.972656 38.78125 L 150.972656 24.445312 L 153.613281 27.085938 C 154.515625 27.988281 155.699219 28.4375 156.882812 28.4375 C 158.066406 28.4375 159.246094 27.988281 160.148438 27.085938 C 161.953125 25.28125 161.953125 22.355469 160.148438 20.550781 L 146.355469 6.757812 L 132.5625 20.550781 C 130.757812 22.355469 130.757812 25.277344 132.5625 27.085938 C 134.363281 28.890625 137.289062 28.890625 139.09375 27.085938 Z M 139.09375 27.085938 "/><g clip-rule="nonzero" clip-path="url(#c7f24af956)"><path style=" stroke:none;fill-rule:nonzero;fill:#a9ce57;fill-opacity:1;" d="M 110.867188 42.359375 L 124.664062 28.5625 C 126.464844 26.757812 126.464844 23.835938 124.664062 22.027344 C 122.859375 20.222656 119.933594 20.222656 118.128906 22.027344 L 115.488281 24.667969 L 115.488281 10.332031 C 115.488281 7.78125 113.417969 5.710938 110.867188 5.710938 C 108.3125 5.710938 106.246094 7.78125 106.246094 10.332031 L 106.246094 24.667969 L 103.605469 22.027344 C 101.800781 20.222656 98.878906 20.222656 97.070312 22.027344 C 95.265625 23.832031 95.265625 26.757812 97.070312 28.5625 Z M 110.867188 42.359375 "/></g><g clip-rule="nonzero" clip-path="url(#cd7c5942cb)"><path style=" stroke:none;fill-rule:nonzero;fill:#a9ce57;fill-opacity:1;" d="M 247.140625 117.308594 L 238.9375 131.523438 L 255.347656 131.523438 Z M 247.140625 117.308594 "/></g><g clip-rule="nonzero" clip-path="url(#c98cba0231)"><path style=" stroke:none;fill-rule:nonzero;fill:#a9ce57;fill-opacity:1;" d="M 247.140625 160.140625 L 255.347656 145.925781 L 238.9375 145.925781 Z M 247.140625 160.140625 "/></g><g clip-rule="nonzero" clip-path="url(#1402e5bab8)"><path style=" stroke:none;fill-rule:nonzero;fill:#a9ce57;fill-opacity:1;" d="M 241.363281 136.640625 C 240.054688 136.640625 238.992188 137.699219 238.992188 139.007812 C 238.992188 140.316406 240.054688 141.378906 241.363281 141.378906 L 252.921875 141.378906 C 254.230469 141.378906 255.292969 140.316406 255.292969 139.007812 C 255.292969 137.699219 254.230469 136.640625 252.921875 136.640625 Z M 241.363281 136.640625 "/></g></g></svg>