<svg xmlns="http://www.w3.org/2000/svg" xmlns:xlink="http://www.w3.org/1999/xlink" width="378" zoomAndPan="magnify" viewBox="0 0 282.96 283.499989" height="378" preserveAspectRatio="xMidYMid meet" version="1.2"><defs><clipPath id="535494483c"><path d="M 4.863281 49.621094 L 278.878906 49.621094 L 278.878906 233 L 4.863281 233 Z M 4.863281 49.621094 "/></clipPath></defs><g id="9e7e33dd2c"><g clip-rule="nonzero" clip-path="url(#535494483c)"><path style=" stroke:none;fill-rule:nonzero;fill:#a9ce57;fill-opacity:1;" d="M 250.78125 103.5 C 251.359375 102.109375 251.910156 100.707031 252.5 99.320312 C 255.21875 92.925781 257.964844 86.539062 260.652344 80.128906 C 261.003906 79.289062 261.863281 78.097656 260.503906 77.503906 C 258.992188 76.84375 259.03125 78.40625 258.671875 79.226562 C 256.742188 83.621094 254.835938 88.027344 252.945312 92.441406 C 251.476562 95.867188 249.835938 99.214844 248.585938 102.734375 C 248.136719 104 248.625 104.457031 249.675781 104.707031 C 250.445312 104.628906 250.566406 104.019531 250.78125 103.5 Z M 258.746094 140.019531 C 258.917969 141.402344 259.976562 141.683594 261.128906 141.671875 C 262.183594 141.664062 262.621094 141.109375 262.5625 140.003906 C 262.074219 130.859375 262.886719 121.765625 263.6875 112.671875 C 264.742188 100.644531 265.800781 88.621094 268.058594 76.738281 C 268.296875 75.472656 268.484375 74.1875 268.546875 72.90625 C 268.585938 72.140625 268.082031 71.492188 267.273438 71.410156 C 266.480469 71.332031 266.488281 72.117188 266.300781 72.621094 C 266.03125 73.363281 265.792969 74.117188 265.578125 74.878906 C 263.027344 83.828125 261.863281 93.011719 260.773438 102.222656 C 259.554688 112.570312 258.746094 122.941406 258.328125 133.34375 C 258.246094 135.582031 258.46875 137.804688 258.746094 140.019531 Z M 78.515625 186.730469 C 77.785156 186.398438 77.300781 186.921875 76.816406 187.347656 C 72.484375 191.15625 68.371094 195.1875 64.394531 199.359375 C 63.914062 199.867188 63.539062 200.515625 63.257812 201.164062 C 63.09375 201.542969 63.304688 202.007812 63.679688 202.308594 C 64.171875 202.699219 64.464844 202.347656 64.742188 202.011719 C 68.757812 197.179688 73.527344 193.089844 77.941406 188.648438 C 78.285156 188.296875 78.574219 187.890625 78.941406 187.445312 C 78.785156 187.167969 78.710938 186.816406 78.515625 186.730469 Z M 50.664062 206.523438 C 57.316406 200.152344 64.121094 193.957031 71.425781 188.332031 C 80.53125 181.324219 89.722656 174.429688 99.25 167.992188 C 99.734375 167.667969 100.347656 167.347656 100.039062 166.660156 C 99.648438 165.800781 98.921875 166.179688 98.382812 166.476562 C 96.8125 167.34375 95.234375 168.214844 93.742188 169.210938 C 80.464844 178.082031 67.75 187.675781 56.058594 198.574219 C 53.480469 200.980469 50.921875 203.40625 48.363281 205.835938 C 48.019531 206.164062 47.523438 206.5 47.9375 207.101562 C 48.191406 207.460938 48.503906 207.753906 49.0625 207.785156 C 49.777344 207.675781 50.164062 207.003906 50.664062 206.523438 Z M 272.082031 60.59375 C 271.910156 60.527344 271.742188 60.464844 271.570312 60.398438 C 267.597656 64.160156 263.5625 67.863281 259.660156 71.695312 C 242.179688 88.878906 224.773438 106.136719 205.609375 121.5 C 193.789062 130.976562 182.5625 141.136719 171.132812 151.066406 C 169.820312 152.207031 169.503906 152.761719 171.449219 153.511719 C 174.136719 154.542969 176.722656 155.847656 179.339844 157.054688 C 200.828125 166.976562 219.511719 181.089844 237.585938 196.058594 C 245.582031 202.675781 253.1875 209.757812 261.050781 216.535156 C 263.410156 218.570312 266.050781 220.285156 268.816406 222.335938 C 268.257812 214.042969 267.847656 206.222656 267.183594 198.421875 C 266.179688 186.648438 266.011719 174.84375 266.214844 163.054688 C 266.523438 145.144531 267.292969 127.242188 268.566406 109.371094 C 269.488281 96.460938 270.53125 83.558594 271.492188 70.652344 C 271.742188 67.304688 271.886719 63.945312 272.082031 60.59375 Z M 14.085938 225.378906 C 15.007812 224.410156 15.632812 223.722656 16.289062 223.066406 C 32.230469 207.203125 48.898438 192.136719 66.558594 178.191406 C 78.554688 168.722656 91.117188 160.070312 104.59375 152.808594 C 106.292969 151.894531 106.621094 151.535156 105.152344 149.945312 C 91.148438 134.804688 76.382812 120.417969 61.875 105.773438 C 46.40625 90.160156 31.914062 73.609375 16.109375 58.3125 C 15.628906 57.847656 15.335938 57.070312 14.574219 57.097656 C 17.117188 113.089844 14.941406 169.042969 14.085938 225.378906 Z M 14.015625 229.039062 C 15.277344 229.039062 15.921875 229.039062 16.5625 229.039062 C 28.105469 229.046875 39.625 228.15625 51.175781 228.277344 C 69.578125 228.46875 87.980469 227.519531 106.378906 228.117188 C 120.15625 228.570312 133.9375 228.011719 147.710938 228.785156 C 160.257812 229.488281 172.828125 228.871094 185.386719 229.207031 C 198.671875 229.558594 211.921875 228.320312 225.203125 228.160156 C 237.605469 228.007812 249.949219 226.523438 262.335938 225.921875 C 264.25 225.832031 266.160156 225.636719 268.523438 225.453125 C 264.785156 222.703125 261.265625 220.371094 258.074219 217.597656 C 247.902344 208.753906 238 199.609375 227.417969 191.226562 C 209.472656 177.011719 190.488281 164.585938 169.195312 155.871094 C 167.414062 155.144531 166.285156 155.203125 164.796875 156.496094 C 158.847656 161.660156 152.457031 166.214844 145.265625 169.554688 C 137.203125 173.292969 129.628906 172.6875 122.539062 167.125 C 118.496094 163.953125 114.796875 160.402344 111.4375 156.554688 C 109.847656 154.730469 108.667969 154.792969 106.746094 155.832031 C 88.796875 165.542969 72.507812 177.613281 56.816406 190.546875 C 47.25 198.433594 38.085938 206.777344 28.882812 215.074219 C 23.984375 219.492188 19.257812 224.105469 14.015625 229.039062 Z M 268.136719 56.925781 C 268.082031 56.652344 268.023438 56.382812 267.96875 56.109375 C 185.128906 57.78125 102.300781 55.734375 18.820312 55.683594 C 19.667969 56.316406 20.167969 56.613281 20.578125 57.007812 C 29.667969 65.746094 38.921875 74.308594 47.753906 83.328125 C 72.664062 108.765625 98.847656 132.949219 123.121094 159.023438 C 125.574219 161.65625 128.363281 163.945312 131.328125 166.03125 C 134.121094 167.996094 136.773438 168.089844 139.804688 166.535156 C 145.933594 163.390625 151.691406 159.691406 156.890625 155.207031 C 168.566406 145.125 180.039062 134.808594 191.777344 124.796875 C 201.261719 116.703125 211.171875 109.109375 220.542969 100.878906 C 234.359375 88.742188 247.546875 75.933594 261.011719 63.417969 C 263.367188 61.230469 265.761719 59.089844 268.136719 56.925781 Z M 94.332031 50.160156 C 118.703125 49.644531 137.324219 49.625 155.9375 50.265625 C 184.066406 51.238281 212.207031 51.808594 240.355469 51.648438 C 251.191406 51.585938 261.988281 51.8125 272.773438 52.867188 C 276.113281 53.195312 276.511719 53.390625 277.246094 56.664062 C 278.023438 60.121094 277.941406 63.675781 278.007812 67.191406 C 278.300781 83.53125 277.414062 99.851562 277.023438 116.183594 C 276.527344 136.757812 276.011719 157.335938 276.515625 177.917969 C 276.910156 194.027344 277.691406 210.121094 278.757812 226.199219 C 278.832031 227.335938 278.445312 227.976562 277.585938 228.492188 C 276.511719 229.144531 275.328125 229.425781 274.078125 229.453125 C 258.359375 229.804688 242.722656 231.609375 227.015625 232.085938 C 198.738281 232.9375 170.472656 233.042969 142.1875 232.125 C 111.539062 231.128906 80.863281 231.320312 50.199219 231.539062 C 41.828125 231.597656 33.457031 231.34375 25.089844 231.890625 C 22.429688 232.0625 19.753906 231.992188 17.085938 231.71875 C 15.230469 231.53125 13.390625 231.324219 11.5625 232.148438 C 10.515625 232.625 9.292969 232.46875 8.140625 232.292969 C 6.238281 231.996094 5.191406 230.984375 5.179688 228.960938 C 5.167969 226.730469 4.945312 224.5 4.976562 222.273438 C 5.285156 200.253906 5.40625 178.230469 6.160156 156.222656 C 6.839844 136.445312 7.472656 116.667969 8.324219 96.898438 C 8.921875 83.023438 9.457031 69.148438 9.5 55.257812 C 9.515625 51.257812 10.191406 50.648438 14.121094 50.628906 C 42.773438 50.492188 71.425781 50.027344 94.332031 50.160156 "/></g></g></svg>