<svg xmlns="http://www.w3.org/2000/svg" xmlns:xlink="http://www.w3.org/1999/xlink" width="378" zoomAndPan="magnify" viewBox="0 0 282.96 283.499989" height="378" preserveAspectRatio="xMidYMid meet" version="1.2"><g id="4514159d5a"><path style=" stroke:none;fill-rule:nonzero;fill:#a9ce57;fill-opacity:1;" d="M 194.929688 77.445312 L 88.917969 77.445312 C 88.636719 77.445312 88.359375 77.472656 88.085938 77.527344 C 87.8125 77.582031 87.546875 77.664062 87.289062 77.769531 C 87.03125 77.875 86.785156 78.007812 86.550781 78.164062 C 86.320312 78.316406 86.105469 78.492188 85.90625 78.691406 C 85.710938 78.890625 85.535156 79.105469 85.378906 79.335938 C 85.222656 79.570312 85.09375 79.8125 84.984375 80.070312 C 84.878906 80.328125 84.796875 80.597656 84.742188 80.871094 C 84.6875 81.144531 84.660156 81.421875 84.660156 81.699219 C 84.660156 81.980469 84.6875 82.257812 84.742188 82.53125 C 84.796875 82.804688 84.878906 83.070312 84.984375 83.328125 C 85.09375 83.585938 85.222656 83.832031 85.378906 84.0625 C 85.535156 84.296875 85.710938 84.511719 85.90625 84.707031 C 86.105469 84.90625 86.320312 85.082031 86.550781 85.238281 C 86.785156 85.394531 87.03125 85.523438 87.289062 85.632812 C 87.546875 85.738281 87.8125 85.820312 88.085938 85.875 C 88.359375 85.925781 88.636719 85.953125 88.917969 85.953125 L 194.929688 85.953125 C 195.207031 85.953125 195.484375 85.925781 195.757812 85.875 C 196.03125 85.820312 196.296875 85.738281 196.558594 85.632812 C 196.816406 85.523438 197.058594 85.394531 197.292969 85.238281 C 197.523438 85.082031 197.738281 84.90625 197.9375 84.707031 C 198.132812 84.511719 198.3125 84.296875 198.464844 84.0625 C 198.621094 83.832031 198.753906 83.585938 198.859375 83.328125 C 198.964844 83.070312 199.046875 82.804688 199.101562 82.53125 C 199.15625 82.257812 199.183594 81.980469 199.183594 81.699219 C 199.183594 81.421875 199.15625 81.144531 199.101562 80.871094 C 199.046875 80.597656 198.964844 80.328125 198.859375 80.070312 C 198.753906 79.8125 198.621094 79.570312 198.464844 79.335938 C 198.3125 79.105469 198.132812 78.890625 197.9375 78.691406 C 197.738281 78.492188 197.523438 78.316406 197.292969 78.164062 C 197.058594 78.007812 196.816406 77.875 196.558594 77.769531 C 196.296875 77.664062 196.03125 77.582031 195.757812 77.527344 C 195.484375 77.472656 195.207031 77.445312 194.929688 77.445312 Z M 194.929688 77.445312 "/><path style=" stroke:none;fill-rule:nonzero;fill:#a9ce57;fill-opacity:1;" d="M 141.921875 213.171875 C 142.203125 213.171875 142.476562 213.144531 142.753906 213.089844 C 143.027344 213.035156 143.292969 212.957031 143.550781 212.847656 C 143.808594 212.742188 144.054688 212.609375 144.285156 212.457031 C 144.519531 212.300781 144.734375 212.125 144.929688 211.925781 C 145.128906 211.730469 145.304688 211.515625 145.460938 211.28125 C 145.617188 211.050781 145.746094 210.804688 145.851562 210.546875 C 145.960938 210.289062 146.039062 210.023438 146.09375 209.75 C 146.148438 209.472656 146.175781 209.199219 146.175781 208.917969 L 146.175781 112.457031 L 194.929688 112.457031 C 195.207031 112.457031 195.484375 112.429688 195.757812 112.375 C 196.03125 112.320312 196.296875 112.242188 196.558594 112.132812 C 196.816406 112.027344 197.058594 111.894531 197.292969 111.742188 C 197.523438 111.585938 197.738281 111.410156 197.9375 111.210938 C 198.132812 111.015625 198.3125 110.800781 198.464844 110.566406 C 198.621094 110.335938 198.753906 110.089844 198.859375 109.832031 C 198.964844 109.574219 199.046875 109.308594 199.101562 109.035156 C 199.15625 108.757812 199.183594 108.484375 199.183594 108.203125 C 199.183594 107.921875 199.15625 107.648438 199.101562 107.375 C 199.046875 107.097656 198.964844 106.832031 198.859375 106.574219 C 198.753906 106.316406 198.621094 106.070312 198.464844 105.839844 C 198.3125 105.605469 198.132812 105.390625 197.9375 105.195312 C 197.738281 104.996094 197.523438 104.820312 197.292969 104.664062 C 197.058594 104.511719 196.816406 104.378906 196.558594 104.273438 C 196.296875 104.164062 196.03125 104.085938 195.757812 104.03125 C 195.484375 103.976562 195.207031 103.949219 194.929688 103.949219 L 88.917969 103.949219 C 88.636719 103.949219 88.359375 103.976562 88.085938 104.03125 C 87.8125 104.085938 87.546875 104.164062 87.289062 104.273438 C 87.03125 104.378906 86.785156 104.511719 86.550781 104.664062 C 86.320312 104.820312 86.105469 104.996094 85.90625 105.195312 C 85.710938 105.390625 85.535156 105.605469 85.378906 105.839844 C 85.222656 106.070312 85.09375 106.316406 84.984375 106.574219 C 84.878906 106.832031 84.796875 107.097656 84.742188 107.375 C 84.6875 107.648438 84.660156 107.921875 84.660156 108.203125 C 84.660156 108.484375 84.6875 108.757812 84.742188 109.035156 C 84.796875 109.308594 84.878906 109.574219 84.984375 109.832031 C 85.09375 110.089844 85.222656 110.335938 85.378906 110.566406 C 85.535156 110.800781 85.710938 111.015625 85.90625 111.210938 C 86.105469 111.410156 86.320312 111.585938 86.550781 111.742188 C 86.785156 111.894531 87.03125 112.027344 87.289062 112.132812 C 87.546875 112.242188 87.8125 112.320312 88.085938 112.375 C 88.359375 112.429688 88.636719 112.457031 88.917969 112.457031 L 137.667969 112.457031 L 137.667969 208.917969 C 137.667969 209.199219 137.695312 209.472656 137.75 209.75 C 137.804688 210.023438 137.882812 210.289062 137.992188 210.546875 C 138.097656 210.804688 138.230469 211.050781 138.382812 211.28125 C 138.539062 211.515625 138.714844 211.730469 138.914062 211.925781 C 139.109375 212.125 139.328125 212.300781 139.558594 212.457031 C 139.789062 212.609375 140.035156 212.742188 140.292969 212.847656 C 140.550781 212.957031 140.816406 213.035156 141.09375 213.089844 C 141.367188 213.144531 141.644531 213.171875 141.921875 213.171875 Z M 141.921875 213.171875 "/><path style=" stroke:none;fill-rule:nonzero;fill:#a9ce57;fill-opacity:1;" d="M 141.921875 13.199219 C 138.203125 13.195312 134.492188 13.363281 130.789062 13.699219 C 127.085938 14.03125 123.40625 14.53125 119.746094 15.199219 C 116.089844 15.867188 112.46875 16.699219 108.882812 17.695312 C 105.300781 18.6875 101.769531 19.84375 98.292969 21.160156 C 94.8125 22.472656 91.402344 23.941406 88.054688 25.566406 C 84.710938 27.1875 81.445312 28.960938 78.257812 30.878906 C 75.074219 32.796875 71.980469 34.855469 68.984375 37.054688 C 65.984375 39.253906 63.089844 41.585938 60.300781 44.046875 C 60.09375 44.230469 59.902344 44.433594 59.734375 44.65625 C 59.566406 44.878906 59.417969 45.117188 59.296875 45.367188 C 59.175781 45.617188 59.078125 45.878906 59.007812 46.148438 C 58.933594 46.417969 58.890625 46.695312 58.875 46.972656 C 58.855469 47.25 58.867188 47.53125 58.902344 47.804688 C 58.941406 48.082031 59.007812 48.355469 59.097656 48.617188 C 59.1875 48.882812 59.304688 49.136719 59.445312 49.378906 C 59.585938 49.617188 59.746094 49.84375 59.933594 50.054688 C 60.117188 50.261719 60.320312 50.453125 60.542969 50.621094 C 60.765625 50.789062 61.003906 50.9375 61.253906 51.058594 C 61.503906 51.183594 61.765625 51.28125 62.035156 51.351562 C 62.304688 51.421875 62.578125 51.46875 62.859375 51.484375 C 63.136719 51.5 63.414062 51.492188 63.691406 51.453125 C 63.96875 51.417969 64.242188 51.351562 64.503906 51.261719 C 64.769531 51.171875 65.023438 51.054688 65.261719 50.914062 C 65.503906 50.773438 65.730469 50.613281 65.941406 50.425781 C 67.773438 48.8125 69.660156 47.253906 71.59375 45.757812 C 73.527344 44.261719 75.507812 42.832031 77.53125 41.460938 C 79.558594 40.089844 81.625 38.789062 83.734375 37.550781 C 85.84375 36.3125 87.988281 35.144531 90.171875 34.042969 C 92.355469 32.945312 94.570312 31.914062 96.820312 30.957031 C 99.070312 30 101.347656 29.113281 103.652344 28.300781 C 105.960938 27.488281 108.289062 26.746094 110.640625 26.082031 C 112.996094 25.417969 115.367188 24.832031 117.757812 24.320312 C 120.148438 23.804688 122.554688 23.371094 124.972656 23.011719 C 127.390625 22.652344 129.816406 22.371094 132.253906 22.167969 C 134.691406 21.964844 137.132812 21.839844 139.574219 21.792969 C 142.019531 21.742188 144.464844 21.773438 146.90625 21.882812 C 149.347656 21.992188 151.785156 22.175781 154.214844 22.441406 C 156.648438 22.707031 159.066406 23.046875 161.476562 23.464844 C 163.882812 23.882812 166.277344 24.378906 168.65625 24.953125 C 171.03125 25.523438 173.390625 26.171875 175.722656 26.894531 C 178.058594 27.617188 180.371094 28.410156 182.65625 29.28125 C 184.941406 30.152344 187.195312 31.09375 189.421875 32.109375 C 191.644531 33.121094 193.835938 34.207031 195.992188 35.359375 C 198.144531 36.515625 200.261719 37.734375 202.339844 39.023438 C 204.417969 40.316406 206.453125 41.667969 208.441406 43.089844 C 210.433594 44.507812 212.375 45.988281 214.273438 47.53125 C 216.167969 49.074219 218.015625 50.679688 219.808594 52.339844 C 221.601562 54 223.339844 55.71875 225.023438 57.492188 C 226.707031 59.265625 228.335938 61.089844 229.902344 62.964844 C 231.46875 64.839844 232.976562 66.765625 234.417969 68.738281 C 235.863281 70.710938 237.242188 72.726562 238.558594 74.789062 C 239.875 76.851562 241.125 78.949219 242.304688 81.089844 C 243.484375 83.230469 244.597656 85.410156 245.640625 87.621094 C 246.683594 89.832031 247.652344 92.074219 248.550781 94.347656 C 249.449219 96.621094 250.277344 98.921875 251.027344 101.25 C 251.777344 103.574219 252.457031 105.921875 253.058594 108.292969 C 253.660156 110.664062 254.183594 113.050781 254.632812 115.453125 C 255.082031 117.855469 255.457031 120.273438 255.75 122.699219 C 256.046875 125.125 256.261719 127.558594 256.402344 130 C 256.542969 132.441406 256.601562 134.886719 256.585938 137.328125 C 256.570312 139.773438 256.472656 142.21875 256.300781 144.65625 C 256.128906 147.09375 255.878906 149.527344 255.550781 151.949219 C 255.222656 154.371094 254.816406 156.78125 254.335938 159.179688 C 253.851562 161.574219 253.292969 163.953125 252.660156 166.316406 C 252.023438 168.675781 251.316406 171.015625 250.53125 173.332031 C 249.75 175.648438 248.890625 177.9375 247.960938 180.199219 C 247.03125 182.457031 246.03125 184.6875 244.957031 186.886719 C 243.886719 189.082031 242.746094 191.242188 241.535156 193.367188 C 240.324219 195.492188 239.046875 197.574219 237.703125 199.617188 C 236.359375 201.660156 234.953125 203.65625 233.480469 205.609375 C 232.007812 207.5625 230.476562 209.46875 228.882812 211.320312 C 227.289062 213.175781 225.640625 214.980469 223.929688 216.726562 C 222.222656 218.476562 220.460938 220.171875 218.644531 221.808594 C 216.828125 223.445312 214.960938 225.019531 213.042969 226.539062 C 211.128906 228.054688 209.164062 229.511719 207.152344 230.902344 C 205.144531 232.292969 203.089844 233.621094 200.996094 234.882812 C 198.902344 236.140625 196.769531 237.335938 194.597656 238.457031 C 192.425781 239.582031 190.222656 240.636719 187.980469 241.621094 C 185.742188 242.605469 183.476562 243.515625 181.179688 244.355469 C 178.882812 245.191406 176.5625 245.957031 174.214844 246.648438 C 171.871094 247.335938 169.503906 247.953125 167.121094 248.492188 C 164.734375 249.03125 162.335938 249.492188 159.921875 249.878906 C 157.507812 250.265625 155.082031 250.570312 152.648438 250.804688 C 150.214844 251.035156 147.777344 251.1875 145.332031 251.261719 C 142.886719 251.335938 140.445312 251.332031 138 251.25 C 135.558594 251.171875 133.117188 251.011719 130.683594 250.773438 C 128.253906 250.539062 125.828125 250.222656 123.414062 249.832031 C 121 249.4375 118.601562 248.96875 116.21875 248.425781 C 113.835938 247.878906 111.472656 247.257812 109.128906 246.5625 C 106.785156 245.867188 104.464844 245.097656 102.171875 244.25 C 99.878906 243.40625 97.613281 242.488281 95.375 241.5 C 93.140625 240.511719 90.9375 239.453125 88.769531 238.320312 C 86.601562 237.191406 84.472656 235.992188 82.378906 234.726562 C 80.289062 233.460938 78.238281 232.128906 76.234375 230.734375 C 74.226562 229.335938 72.265625 227.875 70.351562 226.351562 C 68.441406 224.832031 66.578125 223.25 64.765625 221.609375 C 62.953125 219.964844 61.195312 218.269531 59.492188 216.515625 C 57.789062 214.761719 56.140625 212.953125 54.554688 211.097656 C 52.964844 209.238281 51.4375 207.328125 49.972656 205.371094 C 48.507812 203.417969 47.105469 201.414062 45.765625 199.367188 C 44.425781 197.324219 43.15625 195.234375 41.949219 193.109375 C 40.746094 190.980469 39.609375 188.816406 38.542969 186.617188 C 37.476562 184.417969 36.480469 182.183594 35.554688 179.921875 C 34.632812 177.660156 33.78125 175.367188 33.003906 173.050781 C 32.226562 170.730469 31.523438 168.390625 30.894531 166.027344 C 30.265625 163.664062 29.714844 161.285156 29.238281 158.886719 C 28.761719 156.488281 28.363281 154.078125 28.042969 151.652344 C 27.71875 149.230469 27.476562 146.796875 27.308594 144.359375 C 27.140625 141.917969 27.054688 139.476562 27.042969 137.03125 C 27.03125 134.585938 27.101562 132.144531 27.246094 129.703125 C 27.390625 127.261719 27.617188 124.828125 27.917969 122.402344 C 28.21875 119.976562 28.597656 117.5625 29.050781 115.160156 C 29.507812 112.757812 30.039062 110.375 30.648438 108.003906 C 31.253906 105.636719 31.9375 103.289062 32.695312 100.964844 C 33.453125 98.640625 34.285156 96.34375 35.191406 94.070312 C 36.09375 91.800781 37.070312 89.558594 38.117188 87.351562 C 39.167969 85.140625 40.285156 82.96875 41.472656 80.832031 C 42.65625 78.695312 43.910156 76.597656 45.230469 74.539062 C 46.554688 72.480469 47.9375 70.46875 49.386719 68.5 C 50.835938 66.53125 52.347656 64.609375 53.921875 62.738281 C 54.109375 62.523438 54.273438 62.292969 54.414062 62.046875 C 54.554688 61.804688 54.671875 61.546875 54.761719 61.277344 C 54.851562 61.007812 54.914062 60.734375 54.949219 60.453125 C 54.984375 60.171875 54.992188 59.886719 54.972656 59.605469 C 54.949219 59.324219 54.902344 59.042969 54.824219 58.769531 C 54.746094 58.5 54.644531 58.234375 54.515625 57.984375 C 54.386719 57.730469 54.234375 57.492188 54.054688 57.273438 C 53.878906 57.050781 53.683594 56.847656 53.464844 56.664062 C 53.246094 56.484375 53.015625 56.324219 52.765625 56.1875 C 52.515625 56.050781 52.257812 55.941406 51.984375 55.859375 C 51.714844 55.773438 51.4375 55.71875 51.15625 55.691406 C 50.875 55.660156 50.589844 55.660156 50.308594 55.6875 C 50.027344 55.71875 49.75 55.773438 49.480469 55.855469 C 49.207031 55.9375 48.949219 56.046875 48.699219 56.183594 C 48.449219 56.320312 48.214844 56.476562 48 56.660156 C 47.78125 56.839844 47.582031 57.042969 47.40625 57.265625 C 45.914062 59.039062 44.476562 60.859375 43.089844 62.714844 C 41.699219 64.570312 40.367188 66.46875 39.082031 68.398438 C 37.800781 70.332031 36.578125 72.300781 35.40625 74.300781 C 34.234375 76.300781 33.121094 78.335938 32.066406 80.398438 C 31.011719 82.464844 30.015625 84.554688 29.074219 86.675781 C 28.136719 88.796875 27.261719 90.941406 26.445312 93.113281 C 25.625 95.28125 24.871094 97.472656 24.179688 99.6875 C 23.484375 101.898438 22.855469 104.128906 22.285156 106.378906 C 21.71875 108.625 21.214844 110.886719 20.773438 113.164062 C 20.335938 115.441406 19.957031 117.726562 19.648438 120.027344 C 19.335938 122.324219 19.089844 124.628906 18.910156 126.941406 C 18.726562 129.25 18.613281 131.566406 18.5625 133.882812 C 18.511719 136.203125 18.523438 138.519531 18.605469 140.835938 C 18.683594 143.15625 18.828125 145.46875 19.039062 147.777344 C 19.25 150.085938 19.523438 152.386719 19.863281 154.679688 C 20.207031 156.976562 20.609375 159.257812 21.078125 161.527344 C 21.546875 163.800781 22.078125 166.054688 22.675781 168.296875 C 23.269531 170.535156 23.929688 172.757812 24.652344 174.960938 C 25.371094 177.167969 26.15625 179.347656 27 181.507812 C 27.84375 183.667969 28.746094 185.800781 29.710938 187.910156 C 30.675781 190.019531 31.699219 192.097656 32.78125 194.148438 C 33.863281 196.199219 35 198.21875 36.195312 200.207031 C 37.390625 202.191406 38.640625 204.144531 39.949219 206.058594 C 41.253906 207.976562 42.613281 209.855469 44.023438 211.695312 C 45.433594 213.535156 46.898438 215.332031 48.410156 217.089844 C 49.921875 218.847656 51.484375 220.558594 53.09375 222.230469 C 54.703125 223.898438 56.355469 225.519531 58.058594 227.097656 C 59.757812 228.671875 61.503906 230.199219 63.289062 231.675781 C 65.078125 233.15625 66.902344 234.582031 68.769531 235.953125 C 70.636719 237.328125 72.542969 238.652344 74.484375 239.917969 C 76.425781 241.183594 78.402344 242.398438 80.414062 243.550781 C 82.421875 244.707031 84.464844 245.804688 86.535156 246.847656 C 88.609375 247.886719 90.707031 248.871094 92.835938 249.792969 C 94.960938 250.714844 97.113281 251.578125 99.289062 252.378906 C 101.464844 253.179688 103.660156 253.917969 105.878906 254.59375 C 108.097656 255.273438 110.332031 255.886719 112.585938 256.4375 C 114.835938 256.988281 117.101562 257.476562 119.382812 257.898438 C 121.660156 258.324219 123.953125 258.683594 126.25 258.976562 C 128.550781 259.269531 130.859375 259.5 133.171875 259.664062 C 135.484375 259.828125 137.800781 259.929688 140.117188 259.960938 C 142.4375 259.996094 144.753906 259.964844 147.070312 259.867188 C 149.386719 259.769531 151.699219 259.609375 154.007812 259.382812 C 156.3125 259.15625 158.613281 258.863281 160.90625 258.507812 C 163.195312 258.148438 165.476562 257.730469 167.742188 257.242188 C 170.007812 256.757812 172.261719 256.210938 174.496094 255.597656 C 176.734375 254.984375 178.953125 254.308594 181.148438 253.574219 C 183.347656 252.835938 185.523438 252.039062 187.679688 251.175781 C 189.832031 250.316406 191.957031 249.398438 194.058594 248.417969 C 196.160156 247.4375 198.234375 246.398438 200.277344 245.304688 C 202.320312 244.207031 204.332031 243.054688 206.308594 241.84375 C 208.285156 240.632812 210.230469 239.367188 212.136719 238.050781 C 214.042969 236.730469 215.910156 235.359375 217.738281 233.933594 C 219.570312 232.507812 221.355469 231.03125 223.101562 229.507812 C 224.847656 227.980469 226.550781 226.410156 228.207031 224.785156 C 229.863281 223.164062 231.476562 221.5 233.039062 219.785156 C 234.601562 218.074219 236.117188 216.320312 237.582031 214.519531 C 239.046875 212.722656 240.457031 210.886719 241.820312 209.007812 C 243.179688 207.132812 244.488281 205.21875 245.738281 203.265625 C 246.992188 201.316406 248.191406 199.332031 249.332031 197.3125 C 250.472656 195.292969 251.554688 193.246094 252.582031 191.164062 C 253.605469 189.085938 254.574219 186.980469 255.480469 184.84375 C 256.386719 182.710938 257.234375 180.554688 258.019531 178.371094 C 258.804688 176.191406 259.527344 173.988281 260.1875 171.765625 C 260.847656 169.542969 261.445312 167.304688 261.980469 165.046875 C 262.515625 162.792969 262.988281 160.523438 263.394531 158.238281 C 263.800781 155.957031 264.144531 153.664062 264.421875 151.363281 C 264.699219 149.058594 264.910156 146.753906 265.058594 144.4375 C 265.207031 142.125 265.289062 139.808594 265.304688 137.488281 C 265.324219 135.171875 265.273438 132.851562 265.160156 130.539062 C 265.046875 128.222656 264.867188 125.910156 264.625 123.605469 C 264.378906 121.300781 264.070312 119 263.699219 116.714844 C 263.324219 114.425781 262.886719 112.148438 262.386719 109.886719 C 261.882812 107.621094 261.316406 105.375 260.691406 103.140625 C 260.0625 100.910156 259.371094 98.699219 258.617188 96.503906 C 257.863281 94.3125 257.050781 92.140625 256.175781 89.996094 C 255.296875 87.847656 254.363281 85.726562 253.367188 83.632812 C 252.371094 81.539062 251.320312 79.472656 250.207031 77.4375 C 249.097656 75.402344 247.929688 73.402344 246.703125 71.433594 C 245.480469 69.464844 244.199219 67.53125 242.867188 65.632812 C 241.535156 63.738281 240.148438 61.878906 238.710938 60.058594 C 237.273438 58.242188 235.785156 56.464844 234.246094 54.730469 C 232.707031 52.992188 231.121094 51.304688 229.488281 49.65625 C 227.855469 48.011719 226.175781 46.414062 224.453125 44.863281 C 222.730469 43.3125 220.964844 41.8125 219.15625 40.359375 C 217.347656 38.910156 215.5 37.507812 213.613281 36.160156 C 211.722656 34.816406 209.800781 33.523438 207.839844 32.28125 C 205.878906 31.042969 203.886719 29.863281 201.859375 28.734375 C 199.832031 27.609375 197.777344 26.539062 195.691406 25.53125 C 193.601562 24.519531 191.488281 23.570312 189.347656 22.675781 C 187.207031 21.785156 185.042969 20.957031 182.855469 20.1875 C 180.667969 19.417969 178.460938 18.710938 176.234375 18.066406 C 174.007812 17.421875 171.765625 16.839844 169.503906 16.320312 C 167.246094 15.800781 164.972656 15.347656 162.6875 14.957031 C 160.398438 14.566406 158.105469 14.242188 155.800781 13.980469 C 153.496094 13.71875 151.1875 13.523438 148.871094 13.394531 C 146.558594 13.261719 144.242188 13.199219 141.921875 13.199219 Z M 141.921875 13.199219 "/><path style=" stroke:none;fill-rule:nonzero;fill:#a9ce57;fill-opacity:1;" d="M 213.332031 203.632812 C 213.542969 203.816406 213.769531 203.976562 214.011719 204.113281 C 214.257812 204.25 214.511719 204.363281 214.777344 204.449219 C 215.042969 204.535156 215.3125 204.597656 215.589844 204.632812 C 215.867188 204.664062 216.144531 204.671875 216.421875 204.652344 C 216.703125 204.628906 216.976562 204.582031 217.246094 204.507812 C 217.515625 204.433594 217.773438 204.332031 218.023438 204.207031 C 218.273438 204.078125 218.507812 203.929688 218.726562 203.757812 C 218.945312 203.585938 219.148438 203.394531 219.328125 203.183594 C 220.585938 201.726562 221.796875 200.234375 222.964844 198.707031 C 224.136719 197.179688 225.261719 195.621094 226.34375 194.03125 C 227.425781 192.441406 228.460938 190.820312 229.453125 189.171875 C 230.441406 187.523438 231.386719 185.847656 232.28125 184.148438 C 233.175781 182.445312 234.023438 180.71875 234.824219 178.96875 C 235.621094 177.21875 236.371094 175.449219 237.066406 173.65625 C 237.765625 171.863281 238.414062 170.054688 239.007812 168.226562 C 239.605469 166.398438 240.148438 164.554688 240.640625 162.695312 C 241.132812 160.835938 241.570312 158.960938 241.957031 157.078125 C 242.34375 155.195312 242.675781 153.300781 242.953125 151.398438 C 243.234375 149.496094 243.457031 147.585938 243.628906 145.671875 C 243.800781 143.753906 243.917969 141.835938 243.980469 139.914062 C 244.042969 137.992188 244.050781 136.070312 244.003906 134.144531 C 243.957031 132.222656 243.859375 130.304688 243.703125 128.386719 C 243.550781 126.46875 243.339844 124.558594 243.078125 122.652344 C 242.816406 120.746094 242.5 118.851562 242.128906 116.964844 C 241.761719 115.078125 241.339844 113.199219 240.863281 111.335938 C 240.386719 109.472656 239.859375 107.625 239.28125 105.792969 C 238.699219 103.957031 238.066406 102.140625 237.386719 100.34375 C 236.703125 98.546875 235.96875 96.769531 235.1875 95.011719 C 234.402344 93.253906 233.570312 91.523438 232.691406 89.8125 C 231.808594 88.101562 230.882812 86.417969 229.90625 84.761719 C 228.929688 83.105469 227.90625 81.476562 226.839844 79.878906 C 225.769531 78.277344 224.660156 76.710938 223.5 75.171875 C 222.34375 73.636719 221.144531 72.132812 219.90625 70.664062 C 218.664062 69.195312 217.378906 67.761719 216.058594 66.367188 C 214.734375 64.972656 213.375 63.613281 211.976562 62.292969 C 210.578125 60.972656 209.140625 59.695312 207.667969 58.457031 C 206.199219 57.21875 204.691406 56.023438 203.152344 54.867188 C 201.613281 53.714844 200.042969 52.605469 198.441406 51.542969 C 196.839844 50.476562 195.210938 49.460938 193.550781 48.488281 C 191.890625 47.515625 190.207031 46.589844 188.492188 45.710938 C 186.78125 44.835938 185.046875 44.007812 183.289062 43.226562 C 181.53125 42.449219 179.75 41.71875 177.953125 41.039062 C 176.152344 40.363281 174.335938 39.734375 172.5 39.160156 C 170.664062 38.582031 168.816406 38.058594 166.949219 37.585938 C 165.085938 37.117188 163.210938 36.699219 161.320312 36.332031 C 159.433594 35.96875 157.535156 35.65625 155.628906 35.398438 C 153.726562 35.136719 151.8125 34.933594 149.894531 34.785156 C 147.980469 34.632812 146.058594 34.539062 144.136719 34.496094 C 142.210938 34.453125 140.289062 34.46875 138.367188 34.535156 C 136.445312 34.601562 134.527344 34.722656 132.613281 34.898438 C 130.695312 35.074219 128.789062 35.300781 126.886719 35.585938 C 124.984375 35.867188 123.089844 36.203125 121.207031 36.59375 C 119.324219 36.984375 117.453125 37.425781 115.59375 37.921875 C 113.738281 38.417969 111.894531 38.96875 110.066406 39.566406 C 108.238281 40.167969 106.429688 40.816406 104.640625 41.519531 C 102.847656 42.222656 101.078125 42.972656 99.332031 43.777344 C 97.582031 44.578125 95.859375 45.429688 94.160156 46.328125 C 92.460938 47.226562 90.785156 48.175781 89.140625 49.167969 C 87.492188 50.164062 85.875 51.203125 84.289062 52.289062 C 82.703125 53.375 81.144531 54.503906 79.621094 55.675781 C 78.097656 56.851562 76.609375 58.066406 75.152344 59.324219 C 73.699219 60.582031 72.277344 61.878906 70.898438 63.214844 C 69.515625 64.554688 68.171875 65.929688 66.867188 67.34375 C 65.5625 68.753906 64.300781 70.203125 63.078125 71.691406 C 61.855469 73.175781 60.675781 74.691406 59.539062 76.246094 C 58.402344 77.796875 57.3125 79.378906 56.265625 80.992188 C 55.21875 82.605469 54.21875 84.246094 53.261719 85.917969 C 52.308594 87.585938 51.402344 89.28125 50.542969 91.003906 C 49.683594 92.722656 48.875 94.46875 48.117188 96.234375 C 47.355469 98 46.644531 99.789062 45.988281 101.59375 C 45.328125 103.402344 44.71875 105.226562 44.164062 107.066406 C 43.609375 108.90625 43.105469 110.761719 42.652344 112.632812 C 42.203125 114.503906 41.804688 116.382812 41.460938 118.273438 C 41.113281 120.167969 40.824219 122.066406 40.585938 123.976562 C 40.347656 125.882812 40.164062 127.796875 40.035156 129.71875 C 39.90625 131.636719 39.832031 133.558594 39.808594 135.480469 C 39.789062 137.402344 39.824219 139.324219 39.910156 141.246094 C 40 143.167969 40.140625 145.085938 40.335938 147 C 40.53125 148.910156 40.78125 150.816406 41.085938 152.71875 C 41.390625 154.617188 41.746094 156.503906 42.15625 158.382812 C 42.566406 160.261719 43.03125 162.128906 43.546875 163.980469 C 44.0625 165.835938 44.632812 167.671875 45.25 169.492188 C 45.871094 171.3125 46.542969 173.113281 47.261719 174.898438 C 47.984375 176.679688 48.753906 178.441406 49.578125 180.179688 C 50.398438 181.917969 51.265625 183.632812 52.183594 185.324219 C 53.101562 187.015625 54.066406 188.675781 55.078125 190.3125 C 56.09375 191.949219 57.148438 193.554688 58.25 195.128906 C 59.355469 196.707031 60.5 198.25 61.691406 199.761719 C 62.878906 201.269531 64.113281 202.746094 65.386719 204.1875 C 66.660156 205.628906 67.972656 207.035156 69.324219 208.402344 C 70.675781 209.769531 72.066406 211.097656 73.492188 212.386719 C 74.921875 213.675781 76.382812 214.921875 77.882812 216.128906 C 79.378906 217.335938 80.910156 218.496094 82.476562 219.617188 C 84.039062 220.734375 85.632812 221.8125 87.257812 222.839844 C 88.882812 223.871094 90.535156 224.851562 92.214844 225.789062 C 93.894531 226.726562 95.601562 227.613281 97.332031 228.453125 C 99.0625 229.292969 100.8125 230.082031 102.589844 230.824219 C 104.363281 231.5625 106.15625 232.253906 107.972656 232.894531 C 109.785156 233.53125 111.617188 234.121094 113.460938 234.65625 C 115.308594 235.191406 117.171875 235.675781 119.046875 236.105469 C 120.917969 236.539062 122.804688 236.914062 124.699219 237.238281 C 126.597656 237.5625 128.5 237.835938 130.410156 238.050781 C 132.320312 238.269531 134.238281 238.429688 136.15625 238.539062 C 138.078125 238.648438 140 238.703125 141.921875 238.703125 C 147.65625 238.722656 153.351562 238.261719 159.007812 237.3125 C 164.664062 236.363281 170.199219 234.945312 175.613281 233.054688 C 181.023438 231.164062 186.242188 228.832031 191.257812 226.050781 C 196.273438 223.273438 201.019531 220.089844 205.492188 216.503906 C 205.726562 216.335938 205.945312 216.148438 206.140625 215.9375 C 206.335938 215.726562 206.511719 215.496094 206.660156 215.25 C 206.8125 215.003906 206.933594 214.742188 207.03125 214.472656 C 207.128906 214.199219 207.199219 213.921875 207.238281 213.636719 C 207.277344 213.351562 207.289062 213.0625 207.273438 212.773438 C 207.253906 212.488281 207.207031 212.203125 207.132812 211.925781 C 207.054688 211.644531 206.953125 211.378906 206.824219 211.121094 C 206.691406 210.863281 206.539062 210.621094 206.359375 210.394531 C 206.179688 210.167969 205.980469 209.964844 205.757812 209.777344 C 205.539062 209.59375 205.300781 209.429688 205.046875 209.292969 C 204.792969 209.15625 204.527344 209.046875 204.25 208.964844 C 203.972656 208.878906 203.691406 208.828125 203.402344 208.800781 C 203.117188 208.773438 202.828125 208.777344 202.542969 208.8125 C 202.253906 208.84375 201.976562 208.90625 201.699219 208.996094 C 201.425781 209.085938 201.164062 209.203125 200.914062 209.34375 C 200.664062 209.488281 200.429688 209.65625 200.214844 209.847656 C 196.109375 213.136719 191.757812 216.054688 187.160156 218.601562 C 182.558594 221.148438 177.777344 223.289062 172.8125 225.023438 C 167.847656 226.753906 162.773438 228.054688 157.589844 228.921875 C 152.402344 229.789062 147.179688 230.214844 141.921875 230.191406 C 140.160156 230.191406 138.398438 230.140625 136.636719 230.042969 C 134.878906 229.941406 133.121094 229.792969 131.371094 229.59375 C 129.617188 229.394531 127.875 229.148438 126.136719 228.851562 C 124.398438 228.554688 122.667969 228.207031 120.953125 227.8125 C 119.234375 227.417969 117.527344 226.972656 115.835938 226.484375 C 114.140625 225.992188 112.464844 225.453125 110.800781 224.867188 C 109.136719 224.28125 107.492188 223.648438 105.867188 222.96875 C 104.238281 222.289062 102.632812 221.566406 101.046875 220.792969 C 99.460938 220.023438 97.898438 219.210938 96.359375 218.351562 C 94.816406 217.496094 93.304688 216.59375 91.816406 215.648438 C 90.324219 214.707031 88.863281 213.722656 87.429688 212.695312 C 85.996094 211.667969 84.59375 210.601562 83.222656 209.496094 C 81.847656 208.390625 80.507812 207.246094 79.199219 206.066406 C 77.890625 204.882812 76.617188 203.667969 75.375 202.414062 C 74.136719 201.160156 72.933594 199.871094 71.765625 198.550781 C 70.597656 197.230469 69.46875 195.875 68.378906 194.492188 C 67.289062 193.105469 66.238281 191.691406 65.226562 190.246094 C 64.214844 188.800781 63.246094 187.332031 62.320312 185.832031 C 61.390625 184.332031 60.507812 182.808594 59.667969 181.257812 C 58.824219 179.710938 58.027344 178.136719 57.277344 176.542969 C 56.523438 174.949219 55.816406 173.335938 55.15625 171.699219 C 54.492188 170.066406 53.878906 168.414062 53.3125 166.746094 C 52.742188 165.078125 52.222656 163.394531 51.75 161.695312 C 51.277344 159.996094 50.851562 158.285156 50.476562 156.5625 C 50.101562 154.839844 49.773438 153.109375 49.492188 151.367188 C 49.214844 149.628906 48.988281 147.878906 48.808594 146.125 C 48.628906 144.371094 48.496094 142.613281 48.417969 140.855469 C 48.335938 139.09375 48.304688 137.332031 48.324219 135.566406 C 48.34375 133.804688 48.414062 132.042969 48.53125 130.285156 C 48.652344 128.527344 48.820312 126.773438 49.035156 125.023438 C 49.253906 123.273438 49.523438 121.53125 49.835938 119.796875 C 50.152344 118.0625 50.519531 116.339844 50.933594 114.625 C 51.347656 112.910156 51.808594 111.210938 52.316406 109.523438 C 52.828125 107.835938 53.382812 106.164062 53.988281 104.507812 C 54.59375 102.851562 55.242188 101.210938 55.941406 99.59375 C 56.636719 97.972656 57.378906 96.375 58.164062 94.796875 C 58.953125 93.21875 59.785156 91.664062 60.660156 90.136719 C 61.535156 88.605469 62.453125 87.101562 63.410156 85.621094 C 64.371094 84.140625 65.371094 82.691406 66.414062 81.269531 C 67.457031 79.847656 68.535156 78.457031 69.65625 77.09375 C 70.777344 75.734375 71.9375 74.40625 73.132812 73.109375 C 74.328125 71.8125 75.558594 70.554688 76.824219 69.328125 C 78.089844 68.101562 79.390625 66.910156 80.726562 65.757812 C 82.058594 64.605469 83.425781 63.492188 84.824219 62.417969 C 86.21875 61.339844 87.644531 60.304688 89.101562 59.3125 C 90.554688 58.316406 92.039062 57.363281 93.546875 56.453125 C 95.058594 55.539062 96.589844 54.671875 98.148438 53.847656 C 99.707031 53.023438 101.289062 52.242188 102.890625 51.507812 C 104.492188 50.773438 106.113281 50.085938 107.757812 49.441406 C 109.398438 48.796875 111.054688 48.199219 112.730469 47.652344 C 114.40625 47.101562 116.09375 46.597656 117.796875 46.144531 C 119.5 45.691406 121.214844 45.285156 122.941406 44.925781 C 124.667969 44.570312 126.40625 44.261719 128.148438 44 C 129.890625 43.742188 131.640625 43.53125 133.398438 43.371094 C 135.152344 43.210938 136.910156 43.097656 138.671875 43.039062 C 140.4375 42.976562 142.199219 42.964844 143.960938 43.003906 C 145.722656 43.042969 147.484375 43.128906 149.242188 43.269531 C 151 43.40625 152.75 43.59375 154.496094 43.828125 C 156.246094 44.066406 157.984375 44.351562 159.714844 44.6875 C 161.445312 45.023438 163.164062 45.40625 164.875 45.839844 C 166.582031 46.269531 168.277344 46.75 169.960938 47.277344 C 171.644531 47.808594 173.308594 48.382812 174.957031 49.003906 C 176.609375 49.625 178.238281 50.292969 179.851562 51.007812 C 181.460938 51.722656 183.054688 52.480469 184.621094 53.285156 C 186.191406 54.089844 187.734375 54.9375 189.257812 55.828125 C 190.777344 56.722656 192.273438 57.65625 193.742188 58.632812 C 195.207031 59.605469 196.648438 60.625 198.058594 61.679688 C 199.46875 62.738281 200.851562 63.835938 202.199219 64.96875 C 203.546875 66.105469 204.863281 67.277344 206.144531 68.488281 C 207.429688 69.695312 208.675781 70.941406 209.886719 72.222656 C 211.101562 73.5 212.277344 74.8125 213.414062 76.160156 C 214.550781 77.507812 215.652344 78.882812 216.710938 80.292969 C 217.769531 81.703125 218.792969 83.140625 219.769531 84.605469 C 220.75 86.070312 221.6875 87.5625 222.582031 89.082031 C 223.476562 90.601562 224.328125 92.144531 225.132812 93.710938 C 225.941406 95.28125 226.703125 96.867188 227.421875 98.480469 C 228.140625 100.089844 228.8125 101.71875 229.4375 103.367188 C 230.0625 105.015625 230.640625 106.679688 231.171875 108.359375 C 231.703125 110.039062 232.1875 111.734375 232.625 113.445312 C 233.058594 115.152344 233.449219 116.871094 233.785156 118.601562 C 234.125 120.332031 234.414062 122.070312 234.65625 123.816406 C 234.894531 125.5625 235.085938 127.316406 235.226562 129.070312 C 235.371094 130.828125 235.460938 132.589844 235.503906 134.351562 C 235.546875 136.113281 235.539062 137.875 235.480469 139.636719 C 235.421875 141.402344 235.316406 143.160156 235.160156 144.914062 C 235.003906 146.671875 234.796875 148.421875 234.539062 150.167969 C 234.285156 151.910156 233.980469 153.644531 233.625 155.375 C 233.273438 157.101562 232.871094 158.816406 232.417969 160.519531 C 231.96875 162.226562 231.46875 163.914062 230.921875 165.589844 C 230.378906 167.269531 229.785156 168.925781 229.144531 170.570312 C 228.503906 172.210938 227.816406 173.835938 227.085938 175.441406 C 226.355469 177.042969 225.578125 178.625 224.757812 180.1875 C 223.9375 181.746094 223.070312 183.28125 222.164062 184.792969 C 221.253906 186.304688 220.304688 187.789062 219.3125 189.246094 C 218.320312 190.703125 217.289062 192.132812 216.21875 193.53125 C 215.144531 194.929688 214.035156 196.296875 212.882812 197.632812 C 212.703125 197.847656 212.542969 198.074219 212.402344 198.316406 C 212.265625 198.558594 212.152344 198.8125 212.066406 199.078125 C 211.980469 199.34375 211.917969 199.617188 211.886719 199.894531 C 211.851562 200.171875 211.84375 200.449219 211.863281 200.726562 C 211.886719 201.003906 211.933594 201.277344 212.007812 201.546875 C 212.082031 201.816406 212.183594 202.078125 212.308594 202.324219 C 212.433594 202.574219 212.582031 202.808594 212.753906 203.03125 C 212.925781 203.25 213.117188 203.453125 213.332031 203.632812 Z M 213.332031 203.632812 "/></g></svg>