<svg xmlns="http://www.w3.org/2000/svg" xmlns:xlink="http://www.w3.org/1999/xlink" width="378" zoomAndPan="magnify" viewBox="0 0 282.96 283.499989" height="378" preserveAspectRatio="xMidYMid meet" version="1.2"><defs><clipPath id="0d102f3c6a"><path d="M 23 21 L 266 21 L 266 262.492188 L 23 262.492188 Z M 23 21 "/></clipPath></defs><g id="30536dcef2"><path style=" stroke:none;fill-rule:nonzero;fill:#a9ce57;fill-opacity:1;" d="M 10.394531 139.53125 C 11.195312 136.054688 11.195312 132.527344 10.394531 129.105469 C 9.003906 132.367188 8.949219 136.269531 10.394531 139.53125 Z M 10.394531 139.53125 "/><g clip-rule="nonzero" clip-path="url(#0d102f3c6a)"><path style=" stroke:none;fill-rule:nonzero;fill:#a9ce57;fill-opacity:1;" d="M 252.074219 195.019531 C 268.648438 165.296875 269.984375 131.617188 255.921875 100.132812 C 223.742188 28.179688 175.628906 20.800781 142.21875 21.550781 C 110.25 22.246094 81.972656 34.21875 60.484375 56.136719 C 41.023438 75.914062 28.195312 103.019531 24.292969 132.421875 C 22.101562 149.046875 23.972656 167.113281 29.691406 184.703125 C 35.730469 203.199219 45.726562 219.714844 58.613281 232.601562 C 72.722656 246.710938 96.191406 262.160156 131.046875 262.160156 C 136.390625 262.160156 142.058594 261.789062 147.992188 260.984375 C 171.246094 257.832031 192.363281 250.242188 210.753906 238.375 C 228.285156 227.039062 242.613281 212.019531 252.074219 195.019531 Z M 146.390625 249.011719 C 106.9375 254.304688 81.546875 238.375 67.164062 223.992188 C 44.550781 201.433594 32.148438 165.242188 36.265625 134.023438 C 39.792969 107.1875 51.5 82.542969 69.089844 64.636719 C 88.386719 45.015625 113.78125 34.273438 142.488281 33.683594 C 155.421875 33.417969 174.882812 34.21875 194.074219 44.484375 C 214.761719 55.546875 231.867188 75.96875 244.859375 105.105469 C 257.3125 133.007812 256.136719 162.890625 241.488281 189.191406 C 223.742188 221 188.191406 243.398438 146.390625 249.011719 Z M 146.390625 249.011719 "/></g><path style=" stroke:none;fill-rule:nonzero;fill:#a9ce57;fill-opacity:1;" d="M 171.78125 130.390625 C 183.0625 123.117188 179.050781 97.351562 171.78125 96.496094 C 165.953125 95.800781 162.585938 99.757812 162.105469 108.578125 C 161.785156 114.566406 158.953125 138.621094 171.78125 130.390625 Z M 171.78125 130.390625 "/><path style=" stroke:none;fill-rule:nonzero;fill:#a9ce57;fill-opacity:1;" d="M 121.691406 130.175781 C 132.222656 121.890625 125.753906 96.605469 118.484375 96.445312 C 112.605469 96.335938 109.609375 100.558594 109.984375 109.433594 C 110.25 115.367188 109.71875 139.582031 121.691406 130.175781 Z M 121.691406 130.175781 "/><path style=" stroke:none;fill-rule:nonzero;fill:#a9ce57;fill-opacity:1;" d="M 217.328125 154.175781 C 210.859375 151.773438 201.984375 151.773438 202.785156 154.980469 C 203.589844 158.1875 208.453125 158.988281 208.453125 158.988281 C 208.453125 158.988281 204.550781 181.65625 170.230469 192.507812 C 135.375 203.519531 117.628906 196.195312 106.882812 189.671875 C 92.34375 180.800781 77.855469 161.449219 77.855469 161.449219 C 77.855469 161.449219 86.730469 156.582031 85.125 152.574219 C 83.523438 148.566406 75.449219 151.773438 70.585938 155.78125 C 65.722656 159.789062 62.515625 162.25 62.515625 165.457031 C 62.515625 168.664062 70.265625 165.457031 70.265625 165.457031 C 70.265625 165.457031 78.605469 191.277344 107.632812 203.359375 C 136.660156 215.441406 163.28125 209.828125 179.425781 201.753906 C 195.570312 193.683594 211.660156 181.601562 216.527344 163.851562 C 216.527344 163.851562 223.796875 167.863281 225.398438 163.851562 C 227.003906 159.84375 223.796875 156.636719 217.328125 154.175781 Z M 217.328125 154.175781 "/><path style=" stroke:none;fill-rule:nonzero;fill:#a9ce57;fill-opacity:1;" d="M 273.191406 163.320312 C 271.160156 168.398438 270.730469 174.0625 272.015625 179.410156 C 274.097656 174.332031 274.472656 168.664062 273.191406 163.320312 Z M 273.191406 163.320312 "/><path style=" stroke:none;fill-rule:nonzero;fill:#a9ce57;fill-opacity:1;" d="M 194.820312 256.601562 C 212.785156 254.625 229.78125 245.75 242.828125 233.347656 C 255.921875 220.839844 264.746094 204.054688 268.324219 186.414062 C 264.476562 196.945312 259.773438 206.941406 253.410156 216.027344 C 239.566406 236.019531 218.289062 250.507812 194.820312 256.601562 Z M 194.820312 256.601562 "/><path style=" stroke:none;fill-rule:nonzero;fill:#a9ce57;fill-opacity:1;" d="M 89.882812 24.382812 C 57.703125 33.738281 32.632812 60.949219 20.335938 91.523438 C 16.21875 101.84375 13.28125 112.585938 11.730469 123.441406 C 17.449219 102.324219 26.003906 81.902344 39.261719 64.476562 C 52.410156 47.207031 69.730469 32.722656 89.882812 24.382812 Z M 89.882812 24.382812 "/></g></svg>